<?xml version="1.0" standalone="no"?>
<!DOCTYPE svg PUBLIC "-//W3C//DTD SVG 20010904//EN"
 "http://www.w3.org/TR/2001/REC-SVG-20010904/DTD/svg10.dtd">
<svg version="1.0" xmlns="http://www.w3.org/2000/svg"
 width="900.000000pt" height="900.000000pt" viewBox="0 0 900.000000 900.000000"
 preserveAspectRatio="xMidYMid meet">

<g transform="translate(0.000000,900.000000) scale(0.100000,-0.100000)"
fill="#000000" stroke="none">
<path d="M0 4500 l0 -4500 4500 0 4500 0 0 4500 0 4500 -4500 0 -4500 0 0
-4500z m4870 3461 c523 -124 949 -426 1245 -881 58 -88 166 -301 159 -312 -3
-4 -15 -8 -27 -8 -28 0 -361 -61 -484 -89 -199 -45 -361 -97 -549 -176 -172
-72 -450 -199 -576 -261 -70 -35 -132 -64 -137 -64 -5 0 -69 29 -143 64 -194
92 -631 290 -721 325 -174 69 -572 162 -842 196 -79 10 -77 8 -48 72 96 212
238 417 407 588 307 309 655 490 1096 569 14 2 138 3 275 2 219 -2 262 -5 345
-25z m-1335 -1493 c50 -16 137 -50 195 -75 271 -119 507 -227 530 -244 34 -23
60 -133 60 -250 -1 -489 -513 -803 -959 -588 -70 34 -102 58 -172 128 -71 71
-94 101 -128 173 -101 213 -87 452 37 648 48 75 144 167 223 213 73 42 71 42
214 -5z m2150 7 c161 -89 281 -255 319 -439 30 -147 13 -285 -54 -421 -111
-228 -342 -373 -597 -375 -139 -1 -312 62 -426 155 -180 146 -269 394 -226
631 20 114 25 122 114 166 76 38 226 104 345 153 30 13 93 38 140 58 75 30
240 86 295 100 11 2 22 5 24 6 2 0 32 -15 66 -34z m-1088 -928 c137 -139 137
-160 2 -342 -51 -69 -96 -125 -100 -125 -4 0 -18 15 -30 33 -13 17 -54 74 -92
125 -70 95 -86 136 -73 189 7 24 180 213 196 213 3 0 47 -42 97 -93z m-1854 1
c4 -24 22 -91 41 -149 188 -575 614 -995 1196 -1178 100 -31 322 -68 458 -76
143 -8 127 13 142 -192 33 -462 -103 -1032 -352 -1477 -162 -288 -344 -509
-548 -667 -320 -248 -606 -379 -862 -396 l-98 -6 0 2097 c0 1169 4 2095 9
2092 4 -3 11 -25 14 -48z m3533 -145 c-44 -1227 -275 -2155 -716 -2873 -489
-798 -1229 -1313 -2275 -1585 -169 -44 -507 -114 -553 -115 -10 0 -12 49 -10
227 l3 228 91 7 c613 47 1209 511 1570 1221 160 314 255 632 304 1017 13 104
13 461 0 550 -5 35 -7 66 -5 68 2 2 63 15 137 28 196 36 345 87 518 177 372
193 685 540 834 924 42 107 86 255 86 287 0 21 7 36 18 36 3 0 2 -89 -2 -197z"/>
<path d="M3591 6028 c-32 -16 -48 -32 -62 -62 -23 -52 -23 -71 1 -123 45 -101
169 -112 244 -23 53 64 26 169 -54 211 -45 25 -75 24 -129 -3z"/>
<path d="M5287 6029 c-73 -38 -97 -121 -58 -197 34 -67 132 -93 198 -52 99 60
93 199 -10 249 -53 26 -81 26 -130 0z"/>
</g>
</svg>
