<?xml version="1.0" standalone="no"?>
<!DOCTYPE svg PUBLIC "-//W3C//DTD SVG 20010904//EN"
 "http://www.w3.org/TR/2001/REC-SVG-20010904/DTD/svg10.dtd">
<svg version="1.0" xmlns="http://www.w3.org/2000/svg"
 width="692.000000pt" height="550.000000pt" viewBox="0 0 692.000000 550.000000"
 preserveAspectRatio="xMidYMid meet">

<g transform="translate(0.000000,550.000000) scale(0.100000,-0.100000)"
fill="#000000" stroke="none">
<path d="M1915 5489 c-499 -21 -929 -154 -1260 -388 -103 -72 -284 -253 -358
-357 -135 -191 -230 -422 -273 -664 -22 -120 -25 -418 -6 -545 77 -512 328
-1018 763 -1540 188 -225 533 -556 799 -767 658 -520 1459 -922 2207 -1104
368 -90 608 -119 973 -119 335 1 514 21 785 90 362 91 644 244 876 475 225
224 352 459 419 775 27 127 37 405 21 554 -59 544 -320 1091 -775 1631 -653
773 -1558 1381 -2548 1710 -572 191 -1102 272 -1623 249z m2795 -1395 c75 -14
138 -36 385 -132 117 -46 297 -92 355 -92 12 0 20 -4 18 -9 -1 -5 -116 -139
-255 -298 -526 -603 -786 -938 -979 -1262 -75 -126 -170 -309 -163 -315 2 -1
39 -22 81 -45 106 -58 254 -117 373 -149 88 -23 118 -27 250 -26 167 0 216 10
339 70 97 48 174 106 303 227 61 58 130 115 153 127 l41 21 -6 -48 c-18 -126
-90 -257 -207 -379 -175 -182 -388 -285 -647 -314 -243 -27 -570 43 -841 180
l-59 30 -56 -63 c-64 -71 -118 -174 -139 -264 l-14 -63 76 -55 c41 -31 81 -54
89 -51 12 5 17 -6 25 -59 7 -38 -147 -145 -208 -145 -40 0 -89 33 -132 90 -19
25 -39 45 -43 45 -5 0 -35 -21 -67 -46 -137 -111 -203 -117 -282 -25 -27 31
-70 97 -70 107 0 14 81 59 105 59 16 0 41 15 67 38 l40 38 -83 200 -84 200
-130 -57 c-332 -145 -495 -186 -700 -176 -291 14 -567 132 -765 326 -126 125
-180 228 -188 359 -2 39 -1 72 3 72 18 0 102 -79 182 -172 60 -70 109 -115
159 -148 134 -88 333 -132 539 -119 140 9 194 23 442 116 l202 76 -41 81
c-248 495 -1070 1567 -1323 1724 -56 35 -66 26 110 100 436 182 652 242 870
242 195 0 352 -49 519 -163 84 -56 276 -245 364 -357 41 -52 93 -114 115 -137
l41 -43 23 55 c121 286 410 522 749 610 168 44 306 50 464 19z"/>
<path d="M2365 3934 c-16 -3 -59 -12 -94 -20 -188 -46 -281 -132 -281 -262 0
-123 59 -249 226 -482 60 -85 211 -306 335 -490 123 -184 266 -388 317 -452
l92 -116 55 56 c302 311 389 830 207 1248 -54 125 -120 220 -216 311 -148 140
-299 203 -496 208 -63 2 -128 1 -145 -1z"/>
<path d="M4250 3925 c-150 -34 -256 -91 -368 -199 -434 -415 -418 -1292 30
-1585 l60 -39 53 106 c63 126 207 344 448 682 205 287 288 415 334 523 119
273 55 435 -197 501 -90 24 -277 30 -360 11z"/>
<path d="M3304 1972 l-130 -188 131 -205 c71 -113 140 -220 151 -238 l22 -33
17 53 c22 68 59 142 148 297 l71 124 -20 36 c-10 20 -41 61 -67 92 -27 30 -79
99 -115 152 -37 54 -69 98 -72 98 -3 0 -64 -85 -136 -188z"/>
</g>
</svg>
